# xmcd
#
# Track frame offsets: 
#        247
#        34553
#        51302
#        82431
#        113710
#        140622
#        169953
#        200770
#        218084
#        248251
#
# Disc length: 3713 seconds
#
# Revision: 1
# Processed by: cddbd v1.5.2PL0 Copyright (c) Steve Scherf et al.
# Submitted via: ExactAudioCopy v1.3
#
DISCID=910e7e0a
DTITLE=Various Artist - Destination Out II
DYEAR=2003
DGENRE=Downtempo
TTITLE0=Stateless - All of a sudden (Gonkyburg)
TTITLE1=Cai - Tears in her eyes (Copenhagen)
TTITLE2=Only Child feat. Amp Fiddler - U bring me vibes (Manchester)
TTITLE3=Meitz - Awe mzala (Berlin)
TTITLE4=Loopless - Red thing called love (Lisbon)
TTITLE5=Only Freak - Planet deep (Brussels)
TTITLE6=Bobby Hughes Combination - Microneseren (pressure drop remix( 
TTITLE6=(Bergen)
TTITLE7=Wagon Cookin - Mar (acoustic version) (Madrid)
TTITLE8=Todd Sines and Natacha Labelle - A glimpse (New York)
TTITLE9=Moonstarr - Scarborough rt (Toronto)
EXTD=
EXTT0=
EXTT1=
EXTT2=
EXTT3=
EXTT4=
EXTT5=
EXTT6=
EXTT7=
EXTT8=
EXTT9=
PLAYORDER=
